<svg width="48" height="48" viewBox="0 0 48 48" fill="none" xmlns="http://www.w3.org/2000/svg">
<path d="M24.0001 27.5973C25.038 27.5973 26.0335 27.185 26.7674 26.451C27.5014 25.7171 27.9137 24.7216 27.9137 23.6837C27.9137 22.6457 27.5014 21.6502 26.7674 20.9163C26.0335 20.1823 25.038 19.77 24.0001 19.77C22.9874 19.77 22.0163 20.1723 21.3002 20.8883C20.5842 21.6044 20.1819 22.5756 20.1819 23.5882C20.1819 24.6008 20.5842 25.572 21.3002 26.2881C22.0163 27.0041 22.9874 27.4064 24.0001 27.4064V27.5973Z" fill="#61DAFB"/>
<path d="M24 31.6062C35.4545 31.6062 45 28.1698 45 23.588C45 19.1971 35.4545 15.5698 24 15.5698C12.5455 15.5698 3 19.388 3 23.588C3 28.1698 12.5455 31.6062 24 31.6062Z" stroke="#61DAFB" stroke-width="1.52174"/>
<path d="M17.1272 27.5973C22.8545 37.7155 30.4909 44.0155 34.5 41.9155C38.3182 39.6246 36.7909 29.6973 30.8727 19.5791C25.1454 9.84276 17.5091 3.16094 13.5 5.45185C9.68179 7.93367 11.2091 17.67 17.1272 27.5973Z" stroke="#61DAFB" stroke-width="1.52174"/>
<path d="M17.1272 19.5791C11.3999 29.6973 9.49082 39.6246 13.4999 41.9155C17.3181 44.0155 25.1454 37.7155 30.8726 27.5973C36.5999 17.67 38.509 7.74276 34.4999 5.45185C30.6817 3.16094 22.8545 9.84276 17.1272 19.5791Z" stroke="#61DAFB" stroke-width="1.52174"/>
</svg>
