<svg width="48" height="48" viewBox="0 0 48 48" fill="none" xmlns="http://www.w3.org/2000/svg">
<path d="M39.7937 8.57847C37.9752 5.91064 35.2139 4.03051 32.0652 3.31637C28.9165 2.60224 25.6142 3.10711 22.8228 4.72939L12.8501 11.0279C11.5064 11.8773 10.359 13.0032 9.48415 14.3305C8.60932 15.6579 8.02714 17.1563 7.77635 18.726C7.25147 21.3504 7.77635 23.9748 9.00105 26.4242C8.12552 27.6846 7.51842 29.1115 7.21744 30.6164C6.91647 32.1213 6.92805 33.6719 7.25147 35.1721C7.77635 36.9217 8.30122 38.3214 9.35097 39.5461C11.1958 42.1849 13.9692 44.0295 17.116 44.7108C20.2628 45.3921 23.5509 44.8597 26.3219 43.2202L36.1196 36.9217C37.4435 36.0912 38.5789 34.9928 39.4527 33.6971C40.3266 32.4014 40.9195 30.9371 41.1934 29.3985C41.7182 26.7741 41.1934 24.1498 39.9687 21.8753C40.8584 20.5883 41.473 19.1317 41.774 17.5963C42.0751 16.061 42.0561 14.4801 41.7182 12.9524C41.1934 11.2028 40.6685 9.80318 39.6187 8.57847" fill="#FF3E00"/>
<path d="M21.7731 40.0711C20.7615 40.3579 19.7019 40.4344 18.6596 40.2959C17.6173 40.1574 16.6144 39.8069 15.7127 39.2659C14.8111 38.725 14.0299 38.005 13.4172 37.1505C12.8045 36.296 12.3734 35.325 12.1504 34.2975C11.8884 33.0784 11.9487 31.812 12.3253 30.6234L12.5003 29.9235L13.0252 30.2734C14.2499 31.1482 15.4746 31.8481 16.8742 32.198L17.2242 32.3729V32.7228C17.2242 33.2477 17.2242 33.7726 17.5741 34.1225C17.829 34.5679 18.227 34.914 18.7034 35.1045C19.1798 35.2951 19.7067 35.319 20.1985 35.1723L20.7233 34.8223L30.521 28.6988C30.8853 28.4578 31.1653 28.1092 31.3221 27.7015C31.4789 27.2938 31.5047 26.8474 31.3958 26.4244L31.0459 25.5496C30.776 25.1708 30.3965 24.8839 29.9585 24.7275C29.5206 24.5711 29.0452 24.5527 28.5964 24.6748C28.2465 24.6748 28.0716 24.6748 27.8966 25.0247L24.2225 27.2991L22.123 28.1739C21.1348 28.436 20.1044 28.4986 19.0918 28.3581C18.0792 28.2176 17.1047 27.8768 16.2252 27.3556C15.3457 26.8345 14.5788 26.1433 13.9693 25.3226C13.3598 24.5018 12.9199 23.5679 12.6753 22.5753C12.4586 21.6198 12.44 20.6302 12.6206 19.6673C12.8011 18.7044 13.177 17.7887 13.725 16.9766C14.2499 16.1018 14.9497 15.402 15.6495 14.8771L25.4472 8.75358C26.0407 8.36621 26.6896 8.07125 27.3717 7.87879C28.3714 7.5899 29.4193 7.50668 30.452 7.63415C31.4847 7.76163 32.4809 8.09715 33.3803 8.62044C34.2797 9.14373 35.0637 9.84394 35.6849 10.6787C36.3061 11.5135 36.7516 12.4656 36.9944 13.4774C37.2882 14.7524 37.2277 16.0835 36.8195 17.3265L36.6445 17.8514L36.1196 17.5015C34.8949 16.6267 33.6702 15.9269 32.2706 15.5769H31.9207V15.227C31.9207 14.7022 31.9207 14.1773 31.5707 13.8274C31.4105 13.5739 31.2018 13.3547 30.9565 13.1822C30.7113 13.0098 30.4343 12.8875 30.1417 12.8225C29.849 12.7574 29.5463 12.7509 29.2511 12.8033C28.9559 12.8556 28.674 12.9658 28.4215 13.1275L18.6238 19.426C18.2595 19.667 17.9795 20.0157 17.8227 20.4233C17.6659 20.831 17.6401 21.2775 17.749 21.7005L18.099 22.4003C18.3688 22.7791 18.7483 23.066 19.1863 23.2224C19.6242 23.3788 20.0996 23.3972 20.5484 23.2751L21.2482 23.1001L24.9223 20.6507C25.5698 20.2466 26.279 19.9511 27.0218 19.7759C28.0219 19.5163 29.0639 19.4606 30.0859 19.6122C31.108 19.7638 32.089 20.1196 32.9706 20.6584C33.8522 21.1971 34.6163 21.9078 35.2175 22.7481C35.8186 23.5885 36.2444 24.5412 36.4696 25.5496C36.6445 26.4244 36.6445 27.2991 36.4696 28.3489C36.3119 29.2704 35.9665 30.1498 35.4549 30.9323C34.9432 31.7148 34.2762 32.3838 33.4953 32.8978L23.6976 39.1963L21.7731 40.0711Z" fill="white"/>
</svg>
